<svg version="1.1" id="Layer_1" xmlns="http://www.w3.org/2000/svg" xmlns:xlink="http://www.w3.org/1999/xlink" x="0px" y="0px"
	 width="100%" viewBox="0 0 541 478" enable-background="new 0 0 541 478" xml:space="preserve">

<path fill="#e8e8e8" opacity="1.000000" stroke="none" 
	d="
M91.245148,286.765564 
	C75.786118,264.029541 60.502270,241.610413 45.259632,219.163284 
	C28.135281,193.945023 34.540226,158.642456 59.660587,139.765991 
	C70.965004,131.271378 82.794106,123.395134 93.493027,114.200279 
	C101.855003,107.013847 110.067871,99.907066 119.883957,94.759338 
	C128.566772,90.205902 137.149948,85.452560 145.659882,80.582603 
	C151.854858,77.037445 157.753647,72.970406 163.981155,69.487709 
	C169.038940,66.659180 174.241898,63.974953 179.633804,61.878162 
	C210.574692,49.845932 243.085281,43.133839 274.871979,33.958538 
	C279.119476,32.732491 282.908173,29.836142 287.173492,28.769997 
	C295.820374,26.608660 304.622589,23.823816 313.405609,23.656893 
	C365.047363,22.675434 416.701019,22.188076 468.352722,21.910404 
	C501.333527,21.733105 527.574219,47.400738 528.080750,80.381424 
	C529.480347,171.512222 530.686218,262.646332 531.761597,353.781586 
	C532.103821,382.783508 514.469727,407.344025 488.066010,415.062164 
	C482.894836,416.573792 477.245544,417.102570 471.832703,417.021332 
	C448.677307,416.673859 425.452576,416.866302 402.401154,415.017059 
	C385.405212,413.653564 369.903412,419.606445 353.626709,421.435547 
	C349.671936,421.879974 345.811615,423.353302 341.860260,423.604492 
	C329.863831,424.367157 320.141937,429.668884 311.027313,437.158020 
	C301.904144,444.654205 292.233246,451.503479 282.613617,458.371918 
	C253.334198,479.277435 217.163300,472.724731 197.003220,442.963593 
	C161.806503,391.004852 126.625885,339.035156 91.245148,286.765564 

M279.952362,356.235291 
	C280.380249,358.854675 280.492432,361.574310 281.287323,364.077148 
	C286.381989,380.118744 299.279419,389.268097 316.852661,389.112396 
	C354.507538,388.778809 392.161469,388.327209 429.814972,387.859039 
	C445.141907,387.668457 460.479340,387.602478 475.789124,386.945862 
	C491.870941,386.256165 505.900818,373.218048 506.959930,357.221985 
	C507.848572,343.800385 507.341309,330.273895 507.177460,316.797180 
	C506.227539,238.657898 504.927216,160.521484 504.379883,82.379646 
	C504.241302,62.592606 489.065643,45.676907 469.423065,45.870811 
	C416.773193,46.390553 364.119476,46.697468 311.475983,47.596912 
	C290.295135,47.958797 276.333527,62.930103 276.574249,83.888176 
	C277.613342,174.357391 278.772888,264.825226 279.952362,356.235291


"/>

<path fill="#0053ad" opacity="1.000000" stroke="none" 
	d="
M212.611725,378.364868 
	C179.083191,309.231079 145.828049,240.379349 112.426849,171.598557 
	C107.899979,162.276688 104.250893,153.008530 107.014946,142.435974 
	C108.693840,136.014175 111.415939,130.393723 117.323807,126.592300 
	C122.211784,123.447105 126.708206,119.698853 131.452713,116.322632 
	C133.419266,114.923241 135.580124,113.796928 138.360275,112.119423 
	C137.131699,123.934685 140.321609,134.064072 143.445953,144.248642 
	C167.710190,223.343918 191.912384,302.458191 216.110352,381.573792 
	C216.596512,383.163300 216.800034,384.839294 216.457382,386.637238 
	C215.251312,383.981232 214.045227,381.325226 212.611725,378.364868 
z"/>
<path fill="#008e07" opacity="1.000000" stroke="none" 
	d="
M162.486237,123.271378 
	C163.207809,116.841827 163.503723,110.668648 165.084305,104.844086 
	C166.995712,97.800385 171.819702,92.879501 178.699554,89.861855 
	C185.163071,87.026817 191.383591,83.637726 198.591919,80.054527 
	C197.188232,85.596062 195.970474,89.815987 195.061279,94.101364 
	C192.162430,107.764572 196.194214,120.914330 198.427536,134.137772 
	C204.455978,169.831985 210.754990,205.480759 217.024994,241.133789 
	C221.589890,267.091095 226.312958,293.020569 230.901672,318.973724 
	C233.983139,336.402252 236.977264,353.846344 239.934402,371.296387 
	C240.222031,372.993652 239.972839,374.781860 239.972839,377.750031 
	C214.379471,294.019958 189.159424,211.517609 163.955032,129.010468 
	C163.421082,127.262550 163.067520,125.459541 162.486237,123.271378 
z"/>
<path fill="#aa7a00" opacity="1.000000" stroke="none" 
	d="
M192.420303,393.535278 
	C151.642853,333.220215 110.890083,272.888428 70.050964,212.615173 
	C65.827568,206.382004 61.560650,200.279633 60.436291,192.593811 
	C58.790005,181.340302 61.558891,171.406342 69.644783,163.315170 
	C73.236488,159.721130 77.394836,156.693375 82.114227,152.719589 
	C82.642471,167.791229 89.633652,179.450974 95.499992,191.511139 
	C128.025406,258.377777 160.575134,325.232544 192.960419,392.632324 
	C192.676300,393.293915 192.548309,393.414581 192.420303,393.535278 
z"/>
<path fill="#9b0026" opacity="1.000000" stroke="none" 
	d="
M231.971710,187.022980 
	C227.530258,160.860229 222.848099,135.171677 218.793915,109.384407 
	C215.874664,90.815956 226.800598,75.026497 244.979004,70.334068 
	C247.710678,69.628937 250.520752,69.227486 253.001190,68.742867 
	C253.001190,90.181984 252.789352,111.547501 253.042374,132.907516 
	C253.703415,188.713058 254.573273,244.516113 255.341858,300.320404 
	C255.411499,305.376709 255.351135,310.434753 254.190811,315.555145 
	C246.793839,272.855072 239.396851,230.154999 231.971710,187.022980 
z"/>

</svg>