<svg width="939" height="713" viewBox="0 0 939 713" fill="none" xmlns="http://www.w3.org/2000/svg">
<path fill-rule="evenodd" clip-rule="evenodd" d="M938 0L939 600L1 713L0 113L938 0ZM305.252 205L503 525.082L110 572L305.252 205ZM723.437 493.773C756.734 482.667 787.422 462.25 811.62 435.104L691.696 330.751L814.043 193.494C790.324 172.855 759.963 160.729 726.798 158.651C693.633 156.572 659.154 164.633 627.721 181.815C596.289 198.997 569.314 224.529 550.209 255.18C531.103 285.832 520.724 320.227 520.386 354.017C520.047 387.807 529.763 419.473 548.305 445.012C566.847 470.55 593.383 488.814 624.556 497.493C655.729 506.173 690.14 504.878 723.437 493.773Z" fill="#EFC229"/>
</svg>
